<svg width="24" height="24" viewBox="0 0 24 24" fill="none" xmlns="http://www.w3.org/2000/svg">
<path d="M20.5 16.002H8M8 16.002V3.50195M8 16.002L3.5 20.502M3.5 8.00195H16M16 8.00195V20.502M16 8.00195L20.5 3.50195M21 15.3392V3.80195C21 3.52193 21 3.38191 20.9455 3.27496C20.8976 3.18088 20.8211 3.10439 20.727 3.05645C20.62 3.00195 20.48 3.00195 20.2 3.00195H8.66274C8.41815 3.00195 8.29586 3.00195 8.18077 3.02958C8.07873 3.05408 7.98119 3.09448 7.89172 3.14931C7.7908 3.21115 7.70432 3.29763 7.53137 3.47058L3.46863 7.53332C3.29568 7.70628 3.2092 7.79275 3.14736 7.89367C3.09253 7.98314 3.05213 8.08068 3.02763 8.18272C3 8.29781 3 8.4201 3 8.6647V20.202C3 20.482 3 20.622 3.0545 20.7289C3.10243 20.823 3.17892 20.8995 3.273 20.9475C3.37996 21.002 3.51997 21.002 3.8 21.002H15.3373C15.5818 21.002 15.7041 21.002 15.8192 20.9743C15.9213 20.9498 16.0188 20.9094 16.1083 20.8546C16.2092 20.7928 16.2957 20.7063 16.4686 20.5333L20.5314 16.4706C20.7043 16.2976 20.7908 16.2112 20.8526 16.1102C20.9075 16.0208 20.9479 15.9232 20.9724 15.8212C21 15.7061 21 15.5838 21 15.3392Z" stroke="#C23893" stroke-width="2" stroke-linecap="round" stroke-linejoin="round"/>
</svg>
