<svg width="24" height="24" viewBox="0 0 24 24" fill="none" xmlns="http://www.w3.org/2000/svg">
<path d="M12 2.50155V12.0015M12 12.0015L20.5 7.27926M12 12.0015L3.5 7.27926M12 12.0015V21.5015M20.5 16.7238L12.777 12.4332C12.4934 12.2757 12.3516 12.1969 12.2015 12.166C12.0685 12.1387 11.9315 12.1387 11.7986 12.166C11.6484 12.1969 11.5066 12.2757 11.223 12.4332L3.5 16.7238M21 16.0601V7.94299C21 7.60035 21 7.42903 20.9495 7.27623C20.9049 7.14106 20.8318 7.01697 20.7354 6.91228C20.6263 6.79395 20.4766 6.71074 20.177 6.54434L12.777 2.43323C12.4934 2.27567 12.3516 2.19689 12.2015 2.16601C12.0685 2.13867 11.9315 2.13867 11.7986 2.16601C11.6484 2.19689 11.5066 2.27567 11.223 2.43323L3.82297 6.54434C3.52345 6.71075 3.37369 6.79395 3.26463 6.91229C3.16816 7.01697 3.09515 7.14106 3.05048 7.27623C3 7.42903 3 7.60035 3 7.943V16.0601C3 16.4027 3 16.5741 3.05048 16.7269C3.09515 16.862 3.16816 16.9861 3.26463 17.0908C3.37369 17.2092 3.52345 17.2924 3.82297 17.4588L11.223 21.5699C11.5066 21.7274 11.6484 21.8062 11.7986 21.8371C11.9315 21.8644 12.0685 21.8644 12.2015 21.8371C12.3516 21.8062 12.4934 21.7274 12.777 21.5699L20.177 17.4588C20.4766 17.2924 20.6263 17.2092 20.7354 17.0908C20.8318 16.9861 20.9049 16.862 20.9495 16.7269C21 16.5741 21 16.4027 21 16.0601Z" stroke="#C23893" stroke-width="2" stroke-linecap="round" stroke-linejoin="round"/>
</svg>
