<svg width="46" height="43" viewBox="0 0 46 43" fill="none" xmlns="http://www.w3.org/2000/svg">
<path d="M30.5617 19.4375C30.0508 18.9157 29.429 18.5158 28.7423 18.2673C28.0557 18.0188 27.3219 17.9282 26.5954 18.0022C25.8689 18.0761 25.1684 18.3128 24.546 18.6946C23.9235 19.0764 23.395 19.5934 22.9997 20.2075C22.6046 19.5933 22.0762 19.0761 21.4537 18.6942C20.8312 18.3123 20.1307 18.0755 19.4042 18.0016C18.6776 17.9276 17.9438 18.0183 17.2571 18.2668C16.5704 18.5154 15.9486 18.9155 15.4377 19.4375C14.5161 20.3801 14 21.6461 14 22.9645C14 24.2828 14.5161 25.5488 15.4377 26.4915L22.9997 34.1765L30.5637 26.4925C31.4847 25.5491 32.0002 24.2829 31.9998 22.9645C31.9994 21.6462 31.4833 20.3803 30.5617 19.4375V19.4375Z" stroke="white" stroke-width="2" stroke-miterlimit="10" stroke-linecap="round" stroke-linejoin="round"/>
<path d="M41 41.9766H5C3.93913 41.9766 2.92172 41.5551 2.17157 40.805C1.42143 40.0548 1 39.0374 1 37.9766V1.97656H17L22 9.97656H45V37.9766C45 39.0374 44.5786 40.0548 43.8284 40.805C43.0783 41.5551 42.0609 41.9766 41 41.9766Z" stroke="white" stroke-width="2" stroke-miterlimit="10" stroke-linecap="round" stroke-linejoin="round"/>
</svg>
