<svg width="43" height="35" viewBox="0 0 43 35" fill="none" xmlns="http://www.w3.org/2000/svg">
<path d="M-0.000712532 -0.000194668L16.2393 -0.000196088C17.826 5.13314 18.6193 10.4531 18.6193 15.9598C18.6193 21.5598 17.1726 25.9931 14.2793 29.2598C11.2926 32.6198 6.90596 34.2998 1.11929 34.2998L1.11929 26.4598C5.78596 26.4598 8.11929 23.6131 8.11929 17.9198L8.11929 15.2598L-0.000711198 15.2598L-0.000712532 -0.000194668ZM23.6593 -0.000196736L39.8993 -0.000198156C41.486 5.13314 42.2793 10.4531 42.2793 15.9598C42.2793 21.5598 40.8326 25.9931 37.9393 29.2598C34.9526 32.6198 30.566 34.2998 24.7793 34.2998L24.7793 26.4598C29.446 26.4598 31.7793 23.6131 31.7793 17.9198L31.7793 15.2598L23.6593 15.2598L23.6593 -0.000196736Z" fill="#C23893"/>
</svg>
