<svg width="33" height="33" viewBox="0 0 33 33" fill="none" xmlns="http://www.w3.org/2000/svg">
<path d="M16.5 0C14.3332 0 12.1876 0.426247 10.1857 1.25426C8.18381 2.08237 6.36495 3.29605 4.83271 4.82609C3.30057 6.35623 2.08522 8.1726 1.25598 10.1717C0.426831 12.1709 0 14.3136 0 16.4774C0 18.6412 0.426831 20.7839 1.25598 22.7831C2.08522 24.7822 3.30057 26.5986 4.83271 28.1287C6.36495 29.6588 8.18381 30.8724 10.1857 31.7005C12.1876 32.5286 14.3332 32.9548 16.5 32.9548V24.7161C15.4166 24.7161 14.3438 24.503 13.3428 24.0889C12.3419 23.6749 11.4324 23.0681 10.6664 22.3031C9.90028 21.538 9.29261 20.6298 8.87804 19.6302C8.46337 18.6307 8.25 17.5594 8.25 16.4774C8.25 15.3955 8.46337 14.3241 8.87804 13.3246C9.29261 12.325 9.90028 11.4168 10.6664 10.6517C11.4324 9.88673 12.3419 9.27989 13.3428 8.86588C14.3438 8.45178 15.4166 8.2387 16.5 8.2387V0Z" fill="url(#paint0_linear_3_12574)"/>
<path d="M16.5 21.9702C19.5376 21.9702 21.9999 19.5112 21.9999 16.4778C21.9999 13.4443 19.5376 10.9854 16.5 10.9854C13.4624 10.9854 11 13.4443 11 16.4778C11 19.5112 13.4624 21.9702 16.5 21.9702Z" fill="url(#paint1_linear_3_12574)"/>
<path d="M0 16.4775C0 18.6414 0.426831 20.7841 1.25598 22.7832C2.08522 24.7823 3.30057 26.5987 4.83271 28.1289C6.36495 29.6589 8.18381 30.8726 10.1857 31.7007C12.1876 32.5287 14.3332 32.9549 16.5 32.9549C18.6668 32.9549 20.8124 32.5287 22.8143 31.7007C24.8162 30.8726 26.6351 29.6589 28.1673 28.1289C29.6994 26.5987 30.9148 24.7823 31.744 22.7832C32.5732 20.7841 33 18.6414 33 16.4775H24.75C24.75 17.5595 24.5366 18.6308 24.122 19.6304C23.7074 20.6299 23.0997 21.5382 22.3336 22.3032C21.5676 23.0682 20.6581 23.6751 19.6572 24.0891C18.6562 24.5032 17.5834 24.7162 16.5 24.7162C15.4166 24.7162 14.3438 24.5032 13.3428 24.0891C12.3419 23.6751 11.4324 23.0682 10.6664 22.3032C9.90028 21.5382 9.29261 20.6299 8.87804 19.6304C8.46337 18.6308 8.25 17.5595 8.25 16.4775H0Z" fill="url(#paint2_linear_3_12574)"/>
<path d="M22 16.4779C22 15.0212 21.4206 13.6242 20.3892 12.5941C19.3577 11.564 17.9588 10.9854 16.5001 10.9854C15.0414 10.9854 13.6425 11.564 12.611 12.5941C11.5795 13.6242 11 15.0212 11 16.4779H16.5001H22Z" fill="url(#paint3_linear_3_12574)"/>
<defs>
<linearGradient id="paint0_linear_3_12574" x1="8.25" y1="0" x2="8.25" y2="32.9548" gradientUnits="userSpaceOnUse">
<stop stop-color="#C73293"/>
<stop offset="1" stop-color="#F17EC9" stop-opacity="0"/>
</linearGradient>
<linearGradient id="paint1_linear_3_12574" x1="16.5" y1="10.9854" x2="16.5" y2="21.9702" gradientUnits="userSpaceOnUse">
<stop stop-color="#C73293"/>
<stop offset="1" stop-color="#F17EC9" stop-opacity="0"/>
</linearGradient>
<linearGradient id="paint2_linear_3_12574" x1="16.5" y1="16.4775" x2="16.5" y2="32.9549" gradientUnits="userSpaceOnUse">
<stop stop-color="#C73293"/>
<stop offset="1" stop-color="#F17EC9" stop-opacity="0"/>
</linearGradient>
<linearGradient id="paint3_linear_3_12574" x1="16.5" y1="10.9854" x2="16.5" y2="16.4779" gradientUnits="userSpaceOnUse">
<stop stop-color="#C73293"/>
<stop offset="1" stop-color="#F17EC9" stop-opacity="0"/>
</linearGradient>
</defs>
</svg>
