<svg width="166" height="44" viewBox="0 0 166 44" fill="none" xmlns="http://www.w3.org/2000/svg">
<path d="M27.3164 10.7751H29.9195V28.8316H37.7287V31.426H27.3164V10.7751ZM45.8372 10.7751C47.3818 10.7751 48.8915 11.2315 50.1758 12.0868C51.46 12.942 52.461 14.1574 53.052 15.5797C53.6431 17.0019 53.7977 18.5668 53.4964 20.0764C53.1951 21.5862 52.4514 22.973 51.3591 24.0614C50.267 25.15 48.8755 25.8912 47.3607 26.1915C45.846 26.4918 44.2758 26.3377 42.8488 25.7487C41.4218 25.1595 40.2022 24.162 39.3441 22.8821C38.486 21.6021 38.028 20.0974 38.028 18.5581C38.028 17.536 38.23 16.5239 38.6224 15.5797C39.0149 14.6353 39.5901 13.7774 40.3153 13.0547C41.0404 12.3319 41.9013 11.7586 42.8488 11.3675C43.7962 10.9764 44.8118 10.7751 45.8372 10.7751ZM45.8372 23.7467C46.8669 23.7467 47.8735 23.4424 48.7296 22.8723C49.5858 22.3021 50.2531 21.4917 50.6471 20.5436C51.0412 19.5955 51.1442 18.5524 50.9433 17.5458C50.7425 16.5393 50.2466 15.6148 49.5185 14.8892C48.7904 14.1635 47.8628 13.6693 46.8529 13.4692C45.843 13.2689 44.7963 13.3716 43.845 13.7644C42.8937 14.157 42.0805 14.8221 41.5085 15.6754C40.9364 16.5287 40.6311 17.5319 40.6311 18.5581C40.638 19.9297 41.1895 21.2428 42.1651 22.2102C43.1407 23.1777 44.461 23.7208 45.8372 23.7208V23.7467ZM40.6311 28.8576H51.0434V31.4519H40.6311V28.8576ZM73.9504 31.4519H71.3473V29.597C69.6686 30.768 67.6697 31.3974 65.6206 31.4C63.8732 31.4117 62.1511 30.9849 60.6128 30.159C59.0744 29.333 57.7693 28.1345 56.8179 26.6739C55.8663 25.2133 55.2989 23.5375 55.1679 21.8009C55.0369 20.0643 55.3465 18.3228 56.0682 16.7369C56.7899 15.1508 57.9005 13.7713 59.2976 12.7255C60.6948 11.6796 62.3335 11.0009 64.0629 10.7521C65.7924 10.5032 67.5568 10.6922 69.1937 11.3015C70.8306 11.9107 72.2874 12.9207 73.4298 14.2385L71.5165 15.9378C70.6476 14.9696 69.5495 14.2336 68.322 13.7968C67.0947 13.3599 65.7771 13.2362 64.4895 13.4369C63.2018 13.6375 61.9851 14.1563 60.95 14.9456C59.915 15.7351 59.0947 16.7699 58.5639 17.9563C58.033 19.1426 57.8085 20.4423 57.9108 21.7373C58.0131 23.0323 58.4388 24.281 59.1495 25.3699C59.8601 26.4587 60.8327 27.3531 61.979 27.9714C63.1251 28.5896 64.4084 28.9121 65.7117 28.9095C66.7932 28.9117 67.8626 28.681 68.8465 28.2332C69.8304 27.7855 70.7056 27.1312 71.4124 26.3151H64.3841V23.7208H73.9764L73.9504 31.4519ZM83.5297 10.827C85.0742 10.827 86.584 11.2834 87.8682 12.1387C89.1524 12.9939 90.1534 14.2093 90.7445 15.6315C91.3355 17.0538 91.4901 18.6187 91.1888 20.1283C90.8875 21.6381 90.1438 23.0249 89.0515 24.1133C87.9594 25.2019 86.568 25.9431 85.0531 26.2434C83.5384 26.5437 81.9682 26.3896 80.5412 25.8005C79.1142 25.2114 77.8947 24.2139 77.0366 22.9339C76.1785 21.654 75.7205 20.1493 75.7205 18.61C75.7136 17.5813 75.9114 16.5616 76.3024 15.6096C76.6934 14.6576 77.2698 13.7923 77.9984 13.0638C78.727 12.3352 79.5933 11.7578 80.5472 11.3649C81.5011 10.9721 82.5236 10.7716 83.5557 10.7751L83.5297 10.827ZM83.5297 23.7986C84.5593 23.7986 85.5659 23.4943 86.4221 22.9242C87.2782 22.354 87.9455 21.5436 88.3395 20.5955C88.7336 19.6474 88.8367 18.6043 88.6357 17.5977C88.4349 16.5912 87.939 15.6667 87.2109 14.9411C86.4828 14.2154 85.5552 13.7212 84.5454 13.521C83.5354 13.3208 82.4887 13.4235 81.5374 13.8163C80.5861 14.2089 79.7729 14.874 79.2009 15.7273C78.6289 16.5805 78.3235 17.5838 78.3235 18.61C78.3441 19.977 78.9052 21.2808 79.885 22.2379C80.8646 23.1948 82.1839 23.7278 83.5557 23.7208L83.5297 23.7986ZM78.3235 28.9095H88.7358V31.5038H78.3235V28.9095ZM94.1111 10.7751H96.7142V31.4H94.1111V10.7751ZM100.319 10.7751H102.923C103.057 10.7609 103.192 10.7609 103.326 10.7751C104.416 10.6572 105.519 10.7695 106.563 11.1046C107.606 11.4397 108.568 11.9901 109.384 12.72C110.2 13.45 110.853 14.3431 111.3 15.3411C111.747 16.3391 111.977 17.4198 111.977 18.5127C111.977 19.6055 111.747 20.6862 111.3 21.6842C110.853 22.6823 110.2 23.5754 109.384 24.3053C108.568 25.0352 107.606 25.5856 106.563 25.9208C105.519 26.2559 104.416 26.3682 103.326 26.2503H102.923V31.4389H100.319V10.7751ZM102.923 13.3694V23.63H103.326C104.061 23.7275 104.809 23.6675 105.519 23.4536C106.229 23.2398 106.885 22.8772 107.443 22.3903C108.001 21.9033 108.448 21.3031 108.754 20.6299C109.061 19.9567 109.219 19.226 109.219 18.4867C109.219 17.7475 109.061 17.0168 108.754 16.3436C108.448 15.6703 108.001 15.0701 107.443 14.5832C106.885 14.0961 106.229 13.7337 105.519 13.5198C104.809 13.306 104.061 13.2459 103.326 13.3435C103.184 13.3581 103.044 13.3886 102.909 13.4343L102.923 13.3694ZM121.678 12.2668L119.751 13.7845C119.419 13.4384 118.995 13.194 118.528 13.0801C118.061 12.9662 117.571 12.9875 117.116 13.1415C116.661 13.2953 116.259 13.5755 115.958 13.9491C115.657 14.3227 115.47 14.7741 115.417 15.2503V15.4578C115.417 16.5994 116.211 17.3647 117.76 17.4685C123.721 17.8317 126.454 20.6206 126.454 24.3045V24.538C126.3 25.996 125.729 27.3793 124.809 28.5234C123.89 29.6675 122.659 30.524 121.265 30.9914C119.871 31.4587 118.371 31.517 116.944 31.1594C115.518 30.8019 114.224 30.0434 113.218 28.9743L115.209 27.4437C115.672 27.9388 116.239 28.3274 116.868 28.5828C117.497 28.8381 118.175 28.9541 118.853 28.9224C120.107 28.9883 121.338 28.569 122.288 27.7519C123.239 26.9349 123.836 25.7834 123.955 24.538V24.3564C123.955 20.893 120.545 20.2574 117.591 19.972C114.858 19.7126 112.892 18.0133 112.892 15.5616V15.4578C112.989 14.1814 113.573 12.9906 114.525 12.1314C115.477 11.272 116.723 10.8097 118.007 10.8399C118.688 10.82 119.365 10.9423 119.995 11.1993C120.625 11.4562 121.194 11.842 121.665 12.3317L121.678 12.2668ZM136.645 28.7668C139.886 28.7668 142.45 25.2774 142.45 20.9838V10.6064H145.053V20.9838C145.053 26.6913 141.305 31.2962 136.697 31.2962C132.09 31.2962 128.341 26.6913 128.341 20.9838V10.6064H130.945V20.9838C130.84 25.3423 133.404 28.8316 136.632 28.8316L136.645 28.7668ZM165.032 31.3611H162.429V18.5192L156.429 26.3022L150.428 18.5192V31.4H147.825V10.7751L156.416 22.0475L165.006 10.7751L165.032 31.3611Z" fill="#A1A1AA"/>
<path d="M14.8208 7.67475C14.8208 5.80322 14.0749 4.00835 12.7471 2.68499C11.4193 1.36162 9.61833 0.618164 7.7405 0.618164C5.86267 0.618164 4.06177 1.36162 2.73394 2.68499C1.40612 4.00835 0.660156 5.80322 0.660156 7.67475V29.0131L6.49103 33.177V43.3209H8.98997V33.177L14.8208 29.0131V7.67475ZM12.3219 19.6087L8.98997 22.9294V19.8162L12.3219 16.4955V19.6087ZM3.21116 16.4955L6.54309 19.8162V22.9294L3.21116 19.6087V16.4955ZM12.3219 12.9672L7.7405 17.5332L3.1591 12.8634V9.75022L7.7405 14.3162L12.3219 9.75022V12.9672ZM7.7405 3.10872C8.74808 3.11316 9.72642 3.44667 10.5257 4.05816C11.3249 4.66964 11.901 5.52538 12.1657 6.49433L7.7405 10.8917L3.31529 6.49433C3.57031 5.51575 4.14224 4.6484 4.94237 4.02687C5.7425 3.40533 6.72607 3.06435 7.7405 3.05682V3.10872ZM3.1591 27.7549V23.0851L6.49103 26.4058V30.1157L3.1591 27.7549ZM8.98997 30.1287V26.4058L12.3219 23.0851V27.7419L8.98997 30.1287Z" fill="#A1A1AA"/>
</svg>
