<svg width="162" height="39" viewBox="0 0 162 39" fill="none" xmlns="http://www.w3.org/2000/svg">
<path d="M27.0566 17.8579C28.4294 16.7083 29.3024 14.9816 29.3024 13.051C29.3024 11.1205 28.4294 9.39376 27.0566 8.24417C27.214 8.16798 27.3654 8.0853 27.5096 7.99569C28.4202 7.42952 29.4949 7.10254 30.646 7.10254C33.9313 7.10254 36.5945 9.76582 36.5945 13.051C36.5945 16.3363 33.9313 18.9995 30.646 18.9995C29.4949 18.9995 28.4202 18.6725 27.5096 18.1064C27.3654 18.0168 27.214 17.9341 27.0566 17.8579Z" fill="url(#paint0_linear_3_12614)"/>
<path d="M25.4046 13.9871C26.0186 12.3052 25.9113 10.3733 24.946 8.70138C23.9807 7.02944 22.3613 5.97056 20.5977 5.66138C20.6958 5.51677 20.7856 5.36945 20.8656 5.21973C21.3711 4.27414 22.1384 3.45359 23.1353 2.87802C25.9805 1.23539 29.6186 2.2102 31.2612 5.05532C32.9038 7.90045 31.929 11.5385 29.0838 13.1811C28.0869 13.7567 26.9926 14.0109 25.921 13.9759C25.7514 13.9703 25.5789 13.9745 25.4046 13.9871Z" fill="url(#paint1_linear_3_12614)"/>
<path d="M22.0386 11.4614C21.7295 9.69779 20.6706 8.0784 18.9986 7.1131C17.3267 6.1478 15.3948 6.04049 13.7129 6.65455C13.7256 6.48024 13.7297 6.30777 13.7241 6.1381C13.6891 5.06643 13.9433 3.97216 14.5189 2.97524C16.1616 0.13012 19.7996 -0.844692 22.6448 0.797941C25.4898 2.44057 26.4647 6.07862 24.822 8.92378C24.2465 9.92065 23.4259 10.688 22.4803 11.1935C22.3307 11.2735 22.1833 11.3633 22.0386 11.4614Z" fill="url(#paint2_linear_3_12614)"/>
<path d="M17.8609 10.9569C16.7113 9.5841 14.9846 8.71113 13.054 8.71113C11.1233 8.71113 9.39667 9.5841 8.24709 10.9569C8.17094 10.7995 8.08824 10.6482 7.9986 10.5039C7.43245 9.59333 7.10547 8.51861 7.10547 7.36746C7.10547 4.08218 9.76871 1.41895 13.054 1.41895C16.3393 1.41895 19.0025 4.08218 19.0025 7.36746C19.0025 8.51861 18.6755 9.59333 18.1094 10.5039C18.0197 10.6482 17.937 10.7995 17.8609 10.9569Z" fill="url(#paint3_linear_3_12614)"/>
<path d="M13.9891 12.6097C12.3072 11.9956 10.3753 12.1029 8.70335 13.0682C7.0314 14.0335 5.97252 15.6529 5.66335 17.4165C5.51874 17.3183 5.37142 17.2286 5.22169 17.1486C4.2761 16.643 3.45555 15.8757 2.87998 14.8788C1.23734 12.0337 2.21215 8.39568 5.05728 6.75303C7.90241 5.11038 11.5404 6.08519 13.1831 8.93035C13.7587 9.92722 14.0129 11.0215 13.9778 12.0932C13.9723 12.2628 13.9764 12.4353 13.9891 12.6097Z" fill="url(#paint4_linear_3_12614)"/>
<path d="M11.4615 15.9759C9.69783 16.2851 8.07845 17.3439 7.11315 19.0159C6.14784 20.6878 6.04054 22.6197 6.65461 24.3016C6.48028 24.2889 6.30778 24.2848 6.13809 24.2903C5.06643 24.3254 3.97216 24.0712 2.97525 23.4956C0.13012 21.8529 -0.844693 18.2149 0.797942 15.3698C2.44057 12.5247 6.07862 11.5498 8.92375 13.1925C9.92066 13.7681 10.6879 14.5886 11.1935 15.5341C11.2735 15.6839 11.3633 15.8312 11.4615 15.9759Z" fill="url(#paint5_linear_3_12614)"/>
<path d="M10.9559 20.1544C9.5831 21.304 8.7101 23.0307 8.7101 24.9612C8.7101 26.8918 9.5831 28.6185 10.9559 29.7681C10.7986 29.8442 10.6471 29.927 10.503 30.0166C9.59238 30.5827 8.51761 30.9097 7.36647 30.9097C4.08121 30.9097 1.41797 28.2465 1.41797 24.9612C1.41797 21.6759 4.08121 19.0127 7.36647 19.0127C8.51761 19.0127 9.59238 19.3397 10.503 19.9059C10.6471 19.9955 10.7986 20.0782 10.9559 20.1544Z" fill="url(#paint6_linear_3_12614)"/>
<path d="M12.6077 24.0264C11.9936 25.7083 12.1009 27.6402 13.0662 29.3121C14.0315 30.9842 15.6509 32.0429 17.4146 32.3521C17.3164 32.4968 17.2267 32.6441 17.1466 32.7939C16.6411 33.7394 15.8738 34.5599 14.8769 35.1355C12.0317 36.7782 8.3937 35.8033 6.75107 32.9582C5.10843 30.1131 6.08325 26.4751 8.92837 24.8324C9.92529 24.2568 11.0196 24.0026 12.0912 24.0377C12.2609 24.0432 12.4334 24.0391 12.6077 24.0264Z" fill="url(#paint7_linear_3_12614)"/>
<path d="M15.9738 26.5527C16.283 28.3164 17.3419 29.9358 19.0138 30.901C20.6858 31.8663 22.6178 31.9736 24.2997 31.3596C24.287 31.5339 24.2829 31.7063 24.2884 31.8761C24.3235 32.9477 24.0693 34.042 23.4937 35.0389C21.851 37.8841 18.213 38.8588 15.3678 37.2161C12.5227 35.5736 11.5479 31.9356 13.1906 29.0904C13.7661 28.0935 14.5867 27.3262 15.5322 26.8207C15.6819 26.7406 15.8293 26.6508 15.9738 26.5527Z" fill="url(#paint8_linear_3_12614)"/>
<path d="M20.1533 27.0586C21.3029 28.4314 23.0296 29.3043 24.9602 29.3043C26.8909 29.3043 28.6176 28.4314 29.7672 27.0586C29.8432 27.2159 29.9259 27.3673 30.0156 27.5115C30.5817 28.422 30.9087 29.4969 30.9087 30.648C30.9087 33.9333 28.2455 36.5965 24.9602 36.5965C21.6749 36.5965 19.0117 33.9333 19.0117 30.648C19.0117 29.4969 19.3387 28.422 19.9048 27.5115C19.9945 27.3673 20.0772 27.2159 20.1533 27.0586Z" fill="url(#paint9_linear_3_12614)"/>
<path d="M24.0254 25.4064C25.7073 26.0205 27.6392 25.9132 29.3111 24.948C30.9831 23.9826 32.042 22.3632 32.3511 20.5996C32.4957 20.6977 32.643 20.7875 32.7928 20.8675C33.7384 21.3731 34.559 22.1404 35.1345 23.1373C36.7772 25.9824 35.8023 29.6204 32.9573 31.2631C30.1121 32.9057 26.4741 31.9309 24.8314 29.0858C24.2558 28.0889 24.0016 26.9946 24.0366 25.923C24.0422 25.7533 24.0381 25.5808 24.0254 25.4064Z" fill="url(#paint10_linear_3_12614)"/>
<path d="M30.9046 18.9935C30.9034 18.9956 30.9022 18.9977 30.901 18.9998C29.9358 20.6717 28.3164 21.7306 26.5527 22.0398C26.6508 22.1844 26.7406 22.3318 26.8207 22.4814C27.3262 23.4271 28.0935 24.2476 29.0904 24.8231C31.9356 26.4658 35.5736 25.4909 37.2163 22.6459C38.6244 20.2066 38.1089 17.1847 36.1403 15.3369C35.2755 17.4124 33.2687 18.8928 30.9046 18.9935Z" fill="url(#paint11_linear_3_12614)"/>
<path d="M51.5605 32.1232V8.13507H61.0246C62.8362 8.13507 64.3823 8.45912 65.663 9.10724C66.9514 9.74755 67.9314 10.6573 68.6029 11.8364C69.2823 13.0077 69.6219 14.3859 69.6219 15.971C69.6219 17.564 69.2784 18.9344 68.5912 20.0823C67.904 21.2224 66.9084 22.0969 65.6044 22.706C64.3082 23.3151 62.7386 23.6196 60.8958 23.6196H54.5591V19.5435H60.0759C61.0441 19.5435 61.8484 19.4107 62.4887 19.1453C63.1291 18.8798 63.6054 18.4815 63.9177 17.9505C64.2379 17.4195 64.398 16.7597 64.398 15.971C64.398 15.1746 64.2379 14.503 63.9177 13.9564C63.6054 13.4098 63.1251 12.9959 62.477 12.7148C61.8367 12.4259 61.0285 12.2815 60.0524 12.2815H56.6323V32.1232H51.5605ZM64.5151 21.2067L70.477 32.1232H64.8782L59.0451 21.2067H64.5151Z" fill="#D4D4D8"/>
<path d="M73.1124 32.1232V14.1321H78.1021V32.1232H73.1124ZM75.619 11.8129C74.8772 11.8129 74.2408 11.567 73.7098 11.075C73.1866 10.5753 72.925 9.97791 72.925 9.28294C72.925 8.59578 73.1866 8.00622 73.7098 7.51428C74.2408 7.01453 74.8772 6.76465 75.619 6.76465C76.3608 6.76465 76.9933 7.01453 77.5165 7.51428C78.0475 8.00622 78.313 8.59578 78.313 9.28294C78.313 9.97791 78.0475 10.5753 77.5165 11.075C76.9933 11.567 76.3608 11.8129 75.619 11.8129Z" fill="#D4D4D8"/>
<path d="M88.7287 32.416C87.3622 32.416 86.1245 32.0647 85.0157 31.3619C83.9147 30.6513 83.0401 29.6088 82.392 28.2345C81.7517 26.8524 81.4315 25.1579 81.4315 23.1511C81.4315 21.0896 81.7634 19.3756 82.4271 18.0091C83.0909 16.6348 83.9732 15.6079 85.0743 14.9286C86.1831 14.2414 87.3973 13.8978 88.717 13.8978C89.7243 13.8978 90.5637 14.0696 91.2353 14.4132C91.9146 14.749 92.4613 15.1707 92.8751 15.6782C93.2968 16.178 93.6169 16.6699 93.8356 17.1541H93.9878V8.13507H98.9658V32.1232H94.0464V29.2418H93.8356C93.6013 29.7416 93.2694 30.2374 92.84 30.7294C92.4183 31.2135 91.8678 31.6157 91.1884 31.9358C90.5169 32.256 89.697 32.416 88.7287 32.416ZM90.31 28.4453C91.1143 28.4453 91.7936 28.2267 92.348 27.7894C92.9102 27.3443 93.3397 26.7235 93.6364 25.9271C93.941 25.1306 94.0933 24.1974 94.0933 23.1277C94.0933 22.0579 93.9449 21.1286 93.6482 20.34C93.3514 19.5513 92.922 18.9422 92.3597 18.5128C91.7975 18.0833 91.1143 17.8685 90.31 17.8685C89.4901 17.8685 88.799 18.0911 88.2368 18.5362C87.6745 18.9813 87.249 19.5982 86.9601 20.3868C86.6711 21.1755 86.5267 22.0891 86.5267 23.1277C86.5267 24.174 86.6711 25.0993 86.9601 25.9036C87.2568 26.7001 87.6824 27.3248 88.2368 27.7777C88.799 28.2228 89.4901 28.4453 90.31 28.4453Z" fill="#D4D4D8"/>
<path d="M111.197 32.4746C109.378 32.4746 107.804 32.0881 106.477 31.315C105.157 30.5342 104.138 29.4488 103.42 28.0588C102.701 26.6611 102.342 25.0408 102.342 23.1979C102.342 21.3395 102.701 19.7153 103.42 18.3253C104.138 16.9276 105.157 15.8422 106.477 15.0691C107.804 14.2883 109.378 13.8978 111.197 13.8978C113.017 13.8978 114.586 14.2883 115.906 15.0691C117.233 15.8422 118.256 16.9276 118.975 18.3253C119.693 19.7153 120.052 21.3395 120.052 23.1979C120.052 25.0408 119.693 26.6611 118.975 28.0588C118.256 29.4488 117.233 30.5342 115.906 31.315C114.586 32.0881 113.017 32.4746 111.197 32.4746ZM111.221 28.6093C112.048 28.6093 112.739 28.3751 113.294 27.9066C113.848 27.4302 114.266 26.7821 114.547 25.9622C114.836 25.1423 114.98 24.2092 114.98 23.1628C114.98 22.1164 114.836 21.1833 114.547 20.3634C114.266 19.5435 113.848 18.8954 113.294 18.4191C112.739 17.9427 112.048 17.7046 111.221 17.7046C110.385 17.7046 109.682 17.9427 109.112 18.4191C108.55 18.8954 108.124 19.5435 107.835 20.3634C107.554 21.1833 107.414 22.1164 107.414 23.1628C107.414 24.2092 107.554 25.1423 107.835 25.9622C108.124 26.7821 108.55 27.4302 109.112 27.9066C109.682 28.3751 110.385 28.6093 111.221 28.6093Z" fill="#D4D4D8"/>
<path d="M123.297 32.1232V14.1321H128.134V17.2712H128.321C128.649 16.1545 129.2 15.3112 129.973 14.7412C130.746 14.1633 131.636 13.8744 132.644 13.8744C132.893 13.8744 133.163 13.89 133.452 13.9213C133.741 13.9525 133.994 13.9955 134.213 14.0501V18.4776C133.979 18.4073 133.655 18.3449 133.241 18.2902C132.827 18.2355 132.448 18.2082 132.105 18.2082C131.371 18.2082 130.715 18.3683 130.137 18.6884C129.567 19.0008 129.114 19.4381 128.778 20.0003C128.45 20.5625 128.286 21.2106 128.286 21.9447V32.1232H123.297Z" fill="#D4D4D8"/>
<path d="M136.793 32.1232V14.1321H141.783V32.1232H136.793ZM139.299 11.8129C138.558 11.8129 137.921 11.567 137.39 11.075C136.867 10.5753 136.605 9.97791 136.605 9.28294C136.605 8.59578 136.867 8.00622 137.39 7.51428C137.921 7.01453 138.558 6.76465 139.299 6.76465C140.041 6.76465 140.674 7.01453 141.197 7.51428C141.728 8.00622 141.993 8.59578 141.993 9.28294C141.993 9.97791 141.728 10.5753 141.197 11.075C140.674 11.567 140.041 11.8129 139.299 11.8129Z" fill="#D4D4D8"/>
<path d="M150.91 32.4629C149.762 32.4629 148.739 32.2638 147.841 31.8655C146.943 31.4595 146.233 30.8621 145.709 30.0735C145.194 29.277 144.936 28.2853 144.936 27.0984C144.936 26.0989 145.12 25.2594 145.487 24.5801C145.854 23.9007 146.354 23.3541 146.986 22.9403C147.619 22.5264 148.337 22.2141 149.141 22.0032C149.953 21.7924 150.805 21.644 151.695 21.5581C152.741 21.4488 153.584 21.3473 154.225 21.2536C154.865 21.1521 155.33 21.0037 155.619 20.8085C155.907 20.6133 156.052 20.3244 156.052 19.9417V19.8715C156.052 19.1296 155.818 18.5557 155.349 18.1497C154.888 17.7436 154.232 17.5406 153.381 17.5406C152.483 17.5406 151.769 17.7397 151.238 18.1379C150.707 18.5284 150.356 19.0203 150.184 19.6138L145.569 19.239C145.803 18.1457 146.264 17.2009 146.951 16.4044C147.638 15.6001 148.524 14.9832 149.61 14.5538C150.703 14.1165 151.968 13.8978 153.405 13.8978C154.404 13.8978 155.361 14.015 156.274 14.2492C157.196 14.4835 158.012 14.8466 158.722 15.3385C159.441 15.8305 160.007 16.463 160.421 17.236C160.835 18.0013 161.042 18.9188 161.042 19.9886V32.1232H156.31V29.6284H156.169C155.88 30.1906 155.494 30.6864 155.009 31.1159C154.525 31.5376 153.944 31.8694 153.264 32.1115C152.585 32.3458 151.8 32.4629 150.91 32.4629ZM152.339 29.0193C153.073 29.0193 153.721 28.8748 154.283 28.5859C154.845 28.2892 155.287 27.8909 155.607 27.3912C155.927 26.8914 156.087 26.3253 156.087 25.6928V23.7836C155.931 23.8851 155.716 23.9788 155.443 24.0647C155.177 24.1428 154.877 24.217 154.541 24.2872C154.205 24.3497 153.869 24.4083 153.534 24.4629C153.198 24.5098 152.893 24.5527 152.62 24.5918C152.034 24.6777 151.523 24.8143 151.086 25.0017C150.648 25.1891 150.309 25.4429 150.067 25.7631C149.825 26.0754 149.703 26.4659 149.703 26.9344C149.703 27.6137 149.949 28.133 150.441 28.4922C150.941 28.8436 151.574 29.0193 152.339 29.0193Z" fill="#D4D4D8"/>
<defs>
<linearGradient id="paint0_linear_3_12614" x1="27.8014" y1="7.10254" x2="27.8014" y2="18.9995" gradientUnits="userSpaceOnUse">
<stop stop-color="#25136D"/>
<stop offset="1" stop-color="#3D9BA2"/>
</linearGradient>
<linearGradient id="paint1_linear_3_12614" x1="20.6719" y1="4.30031" x2="26.6204" y2="14.6035" gradientUnits="userSpaceOnUse">
<stop stop-color="#25136D"/>
<stop offset="1" stop-color="#3D9BA2"/>
</linearGradient>
<linearGradient id="paint2_linear_3_12614" x1="13.0966" y1="5.43874" x2="23.3998" y2="11.3872" gradientUnits="userSpaceOnUse">
<stop stop-color="#25136D"/>
<stop offset="1" stop-color="#3D9BA2"/>
</linearGradient>
<linearGradient id="paint3_linear_3_12614" x1="7.10547" y1="10.212" x2="19.0025" y2="10.212" gradientUnits="userSpaceOnUse">
<stop stop-color="#25136D"/>
<stop offset="1" stop-color="#3D9BA2"/>
</linearGradient>
<linearGradient id="paint4_linear_3_12614" x1="4.30228" y1="17.3423" x2="14.6054" y2="11.3938" gradientUnits="userSpaceOnUse">
<stop stop-color="#25136D"/>
<stop offset="1" stop-color="#3D9BA2"/>
</linearGradient>
<linearGradient id="paint5_linear_3_12614" x1="5.43876" y1="24.9179" x2="11.3873" y2="14.6148" gradientUnits="userSpaceOnUse">
<stop stop-color="#25136D"/>
<stop offset="1" stop-color="#3D9BA2"/>
</linearGradient>
<linearGradient id="paint6_linear_3_12614" x1="10.2111" y1="30.9097" x2="10.2111" y2="19.0127" gradientUnits="userSpaceOnUse">
<stop stop-color="#25136D"/>
<stop offset="1" stop-color="#3D9BA2"/>
</linearGradient>
<linearGradient id="paint7_linear_3_12614" x1="17.3404" y1="33.7132" x2="11.3919" y2="23.4101" gradientUnits="userSpaceOnUse">
<stop stop-color="#25136D"/>
<stop offset="1" stop-color="#3D9BA2"/>
</linearGradient>
<linearGradient id="paint8_linear_3_12614" x1="24.916" y1="32.5755" x2="14.6128" y2="26.6268" gradientUnits="userSpaceOnUse">
<stop stop-color="#25136D"/>
<stop offset="1" stop-color="#3D9BA2"/>
</linearGradient>
<linearGradient id="paint9_linear_3_12614" x1="30.9087" y1="27.8034" x2="19.0117" y2="27.8034" gradientUnits="userSpaceOnUse">
<stop stop-color="#25136D"/>
<stop offset="1" stop-color="#3D9BA2"/>
</linearGradient>
<linearGradient id="paint10_linear_3_12614" x1="33.7123" y1="20.6738" x2="23.4091" y2="26.6223" gradientUnits="userSpaceOnUse">
<stop stop-color="#25136D"/>
<stop offset="1" stop-color="#3D9BA2"/>
</linearGradient>
<linearGradient id="paint11_linear_3_12614" x1="32.5755" y1="13.0978" x2="26.6269" y2="23.4009" gradientUnits="userSpaceOnUse">
<stop stop-color="#25136D"/>
<stop offset="1" stop-color="#3D9BA2"/>
</linearGradient>
</defs>
</svg>
