<svg width="24" height="24" viewBox="0 0 24 24" fill="none" xmlns="http://www.w3.org/2000/svg">
<path d="M12 2.00195L10.6985 7.20794C10.4445 8.2238 10.3176 8.73173 10.0531 9.14504C9.81915 9.51063 9.50868 9.8211 9.14309 10.055C8.72978 10.3195 8.22185 10.4465 7.20599 10.7005L2 12.002L7.20599 13.3035C8.22185 13.5574 8.72978 13.6844 9.14309 13.9489C9.50868 14.1828 9.81915 14.4933 10.0531 14.8589C10.3176 15.2722 10.4445 15.7801 10.6985 16.796L12 22.002L13.3015 16.796C13.5555 15.7801 13.6824 15.2722 13.9469 14.8589C14.1808 14.4933 14.4913 14.1828 14.8569 13.9489C15.2702 13.6844 15.7782 13.5574 16.794 13.3035L22 12.002L16.794 10.7005C15.7782 10.4465 15.2702 10.3195 14.8569 10.055C14.4913 9.8211 14.1808 9.51063 13.9469 9.14504C13.6824 8.73173 13.5555 8.2238 13.3015 7.20794L12 2.00195Z" stroke="#C23893" stroke-width="2" stroke-linecap="round" stroke-linejoin="round"/>
</svg>
