<svg width="198" height="35" viewBox="0 0 198 35" fill="none" xmlns="http://www.w3.org/2000/svg">
<path d="M0 29.3501C5.40326 29.3501 9.78342 24.9698 9.78342 19.5667C9.78342 14.1634 5.40326 9.7832 0 9.7832V16.6316C1.62096 16.6316 2.93501 17.9456 2.93501 19.5667C2.93501 21.1876 1.62096 22.5017 0 22.5017V29.3501Z" fill="#E11D48"/>
<path d="M32.6112 13.0448C30.9394 12.5152 29.159 12.2295 27.3118 12.2295C17.631 12.2295 9.7832 20.0774 9.7832 29.7581C9.7832 30.7298 9.86228 31.6831 10.0143 32.6117H20.9054C20.5166 31.74 20.3005 30.7744 20.3005 29.7581C20.3005 25.8858 23.4395 22.7467 27.3118 22.7467C29.4283 22.7467 31.3256 23.6844 32.6112 25.167V13.0448Z" fill="#FDA4AF"/>
<path d="M1.71875 0C2.52986 7.33749 8.75065 13.0446 16.3044 13.0446C23.858 13.0446 30.0788 7.33749 30.8899 0H20.395C19.7471 1.62423 18.1597 2.77196 16.3044 2.77196C14.4489 2.77196 12.8616 1.62423 12.2136 0H1.71875Z" fill="#FB7185"/>
<path d="M59.1681 8.14502H63.0162C65.2327 8.14502 66.4025 8.20659 67.5415 8.36052V4.23535C66.3717 4.38928 65.2327 4.45084 63.0162 4.45084H50.8254C49.0707 4.45084 47.7469 4.38928 46.6387 4.23535V8.36052C47.7161 8.20659 49.0399 8.14502 50.8562 8.14502H55.0121V24.9535C55.0121 26.6159 54.9506 27.6626 54.7659 28.9555H59.4144C59.2297 27.6934 59.1681 26.6159 59.1681 24.9535V8.14502Z" fill="#E4E4E7"/>
<path d="M69.9115 4.45084V8.36052H74.4369V4.45084H69.9115ZM69.9115 11.2851C70.0962 12.5472 70.1578 13.5939 70.1578 15.2871V24.9535C70.1578 26.4928 70.0962 27.5702 69.9115 28.9555H74.4061C74.2522 27.6626 74.1906 26.6159 74.1906 24.9227V15.3179C74.1906 13.44 74.2522 12.4241 74.4061 11.2851H69.9115Z" fill="#E4E4E7"/>
<path d="M82.7021 28.9555C82.5174 27.6318 82.4558 26.462 82.4558 24.9535V18.735C83.8104 15.6873 85.6267 14.1481 87.8432 14.1481C89.013 14.1481 89.9365 14.6098 90.4291 15.4102C90.7985 15.9951 90.9524 16.8263 90.9524 18.1193V24.9535C90.9524 26.5235 90.8909 27.5702 90.7369 28.9555H95.2007C95.016 27.8165 94.9545 26.6467 94.9545 24.9535V17.5652C94.9545 15.5026 94.6466 14.2712 93.9078 13.2553C92.7995 11.7468 91.0448 10.9772 88.6744 10.9772C85.9037 10.9772 84.2721 11.8392 82.3943 14.2404C82.4558 13.4708 82.4558 13.3784 82.4558 12.9167V11.2851H78.2691C78.4538 12.5472 78.5154 13.5939 78.5154 15.2871V24.9535C78.5154 26.6775 78.4538 27.6318 78.2691 28.9555H82.7021Z" fill="#E4E4E7"/>
<path d="M104.863 27.7242L103.816 30.0946C103.385 31.0489 102.492 31.6338 101.415 31.6338C100.707 31.6338 100.122 31.4799 99.2598 31.1105L98.5517 34.6199C99.9678 34.897 100.861 34.9894 101.784 34.9894C104.647 34.9894 106.463 33.9119 107.449 31.5723L114.467 15.1024C115.391 12.9474 115.945 11.6853 116.13 11.2851H111.543C111.358 12.2702 111.112 13.0398 110.373 14.9177L106.956 23.6298L103.2 14.8869C102.646 13.6247 102.184 12.1778 102.03 11.2851H97.3511C97.7205 11.9623 97.7513 12.0547 99.1058 15.1024L104.863 27.7242Z" fill="#E4E4E7"/>
<path d="M117.944 31.7877C120.037 34.1582 122.069 34.9894 125.671 34.9894C128.842 34.9894 131.397 34.2813 132.936 33.0191C134.722 31.5107 135.522 29.1403 135.522 25.4461V15.1332C135.522 13.4708 135.584 12.6088 135.738 11.2851H131.612V12.7012C131.612 13.0398 131.612 13.1014 131.674 13.7171C130.35 11.8392 128.534 11.008 125.794 11.008C120.807 11.008 117.575 14.4559 117.575 19.7817C117.575 25.0459 120.715 28.4014 125.609 28.4014C128.288 28.4014 130.104 27.5394 131.643 25.6C131.582 27.6934 131.366 28.7708 130.843 29.6944C129.981 31.172 128.165 32.0032 125.794 32.0032C123.578 32.0032 122.223 31.326 121.022 29.6636L117.944 31.7877ZM121.607 19.874C121.607 16.2106 123.516 13.9018 126.594 13.9018C127.703 13.9018 128.719 14.302 129.581 15.01C130.812 16.0567 131.428 17.596 131.428 19.5662C131.428 20.9823 131.151 22.1213 130.566 23.0756C129.704 24.5225 127.98 25.5076 126.287 25.5076C125.117 25.5076 123.793 24.9535 123.023 24.1223C122.1 23.1988 121.607 21.6903 121.607 19.874Z" fill="#E4E4E7"/>
<path d="M148.094 29.5405C153.574 29.5405 157.176 25.7847 157.176 20.0895C157.176 14.3943 153.635 10.7617 148.063 10.7617C142.46 10.7617 138.889 14.4251 138.889 20.1511C138.889 25.9078 142.46 29.5405 148.094 29.5405ZM148.063 13.9633C151.326 13.9633 153.204 16.2414 153.204 20.2127C153.204 23.9684 151.234 26.2773 148.032 26.2773C144.831 26.2773 142.861 23.9376 142.861 20.1511C142.861 16.303 144.831 13.9633 148.063 13.9633Z" fill="#E4E4E7"/>
<path d="M164.685 28.9555C164.5 27.6318 164.438 26.462 164.438 24.9535V18.735C165.793 15.6873 167.609 14.1481 169.826 14.1481C170.996 14.1481 171.919 14.6098 172.412 15.4102C172.781 15.9951 172.935 16.8263 172.935 18.1193V24.9535C172.935 26.5235 172.873 27.5702 172.719 28.9555H177.183C176.999 27.8165 176.937 26.6467 176.937 24.9535V17.5652C176.937 15.5026 176.629 14.2712 175.89 13.2553C174.782 11.7468 173.027 10.9772 170.657 10.9772C167.886 10.9772 166.255 11.8392 164.377 14.2404C164.438 13.4708 164.438 13.3784 164.438 12.9167V11.2851H160.252C160.436 12.5472 160.498 13.5939 160.498 15.2871V24.9535C160.498 26.6775 160.436 27.6318 160.252 28.9555H164.685Z" fill="#E4E4E7"/>
<path d="M197.527 21.1362C197.466 20.4282 197.466 20.3358 197.466 20.2742C197.374 18.1809 197.158 17.0726 196.573 15.5949C195.342 12.5165 192.51 10.7309 188.908 10.7309C183.644 10.7309 180.226 14.4559 180.226 20.1511C180.226 25.9078 183.674 29.5405 189.123 29.5405C191.709 29.5405 193.864 28.7401 195.465 27.17C196.234 26.4004 196.635 25.8155 197.343 24.3378L193.71 23.168C193.402 23.9992 193.187 24.3378 192.817 24.7688C191.925 25.7539 190.632 26.3081 189.123 26.3081C187.553 26.3081 186.168 25.6924 185.275 24.5841C184.567 23.6913 184.29 22.8294 184.136 21.1362H197.527ZM184.228 18.0885C184.69 15.5026 186.445 13.9018 188.846 13.9018C190.293 13.9018 191.34 14.302 192.171 15.1332C192.941 15.9028 193.31 16.734 193.525 18.0885H184.228Z" fill="#E4E4E7"/>
</svg>
